<svg fill="#f1f1f1" id="Capa_1" enable-background="new 0 0 512 512" height="512" viewBox="0 0 512 512" width="512" xmlns="http://www.w3.org/2000/svg"><g><path d="m497 341h-6.485c-3.575-57.126-27.514-110.339-68.345-151.17-31.115-31.115-69.423-52.414-111.17-62.378v-11.452c0-30.327-24.673-55-55-55s-55 24.673-55 55v11.452c-41.747 9.965-80.055 31.263-111.17 62.378-40.831 40.831-64.769 94.044-68.345 151.17h-6.485c-8.284 0-15 6.716-15 15 0 52.383 42.617 95 95 95h320c25.402 0 49.55-9.818 67.993-27.646 18.705-18.081 29.007-42.001 29.007-67.354 0-8.284-6.716-15-15-15zm-266-225c0-13.785 11.215-25 25-25s25 11.215 25 25v6.32c-8.25-.867-16.589-1.32-25-1.32s-16.75.453-25 1.32zm25 35c107.992 0 196.741 83.939 204.449 190h-408.898c7.708-106.061 96.457-190 204.449-190zm159 270h-320c-30.681 0-56.465-21.365-63.253-50h448.371c-7.193 28.287-34.1 50-65.118 50z"/></g></svg>